<?xml version="1.0" encoding="UTF-8"?>
<svg width="19px" height="18px" viewBox="0 0 19 18" version="1.1" xmlns="http://www.w3.org/2000/svg" xmlns:xlink="http://www.w3.org/1999/xlink">
    <title>contact-linkedin</title>
    <g id="What-I-do" stroke="none" stroke-width="1" fill="none" fill-rule="evenodd">
        <g id="contact-linkedin" transform="translate(0.000000, 0.000000)" fill="#FFFFFF" fill-rule="nonzero">
            <path d="M4.27476173,18 L4.27476173,5.85543014 L0.238157762,5.85543014 L0.238157762,18 L4.27476173,18 Z M2.25698174,4.1962998 C3.66461634,4.1962998 4.54080146,3.26373874 4.54080146,2.0983479 C4.51457549,0.906677093 3.66467034,0 2.28369372,0 C0.902933097,0 0,0.906695093 0,2.0983479 C0,3.26379274 0.875969124,4.1962998 2.23062977,4.1962998 L2.25685574,4.1962998 L2.25698174,4.1962998 Z M6.50900949,18 L10.5456135,18 L10.5456135,11.2178768 C10.5456135,10.8549071 10.5718394,10.4923155 10.6784353,10.2328458 C10.970251,9.50764449 11.6344324,8.75654124 12.7495133,8.75654124 C14.2101938,8.75654124 14.7945452,9.87023613 14.7945452,11.5028345 L14.7945452,18 L18.8308972,18 L18.8308972,11.036329 C18.8308972,7.30599469 16.8394512,5.57031043 14.1836078,5.57031043 C12.006024,5.57031043 11.049919,6.78750521 10.5187575,7.61653038 L10.5457035,7.61653038 L10.5457035,5.85517814 L6.50900949,5.85517814 C6.56207344,6.99475701 6.50900949,17.999748 6.50900949,17.999748 L6.50900949,18 Z" id="Shape"></path>
        </g>
    </g>
</svg>