<?xml version="1.0" encoding="UTF-8"?>
<svg width="20px" height="20px" viewBox="0 0 20 20" version="1.1" xmlns="http://www.w3.org/2000/svg" xmlns:xlink="http://www.w3.org/1999/xlink">
    <title>contact-github</title>
    <g id="What-I-do" stroke="none" stroke-width="1" fill="none" fill-rule="evenodd">
        <g id="contact-github" fill="#FFFFFF">
            <path d="M10,0 C4.475,0 0,4.58818995 0,10.2529384 C0,14.7898637 2.8625,18.6218994 6.8375,19.9804138 C7.3375,20.070127 7.525,19.7625388 7.525,19.4933992 C7.525,19.2498919 7.5125,18.442473 7.5125,17.5837894 C5,18.0579878 4.35,16.9557969 4.15,16.3790691 C4.0375,16.0842972 3.55,15.1743489 3.125,14.9308416 C2.775,14.738599 2.275,14.2644006 3.1125,14.2515844 C3.9,14.2387682 4.4625,14.9949225 4.65,15.3025106 C5.55,16.8532675 6.9875,16.4175177 7.5625,16.148378 C7.65,15.481937 7.9125,15.033371 8.2,14.7770475 C5.975,14.5207241 3.65,13.6364081 3.65,9.71465916 C3.65,8.59965211 4.0375,7.67688765 4.675,6.95918196 C4.575,6.7028585 4.225,5.65193231 4.775,4.24215328 C4.775,4.24215328 5.6125,3.97301364 7.525,5.29307946 C8.325,5.06238835 9.175,4.94704279 10.025,4.94704279 C10.875,4.94704279 11.725,5.06238835 12.525,5.29307946 C14.4375,3.96019747 15.275,4.24215328 15.275,4.24215328 C15.825,5.65193231 15.475,6.7028585 15.375,6.95918196 C16.0125,7.67688765 16.4,8.58683594 16.4,9.71465916 C16.4,13.6492243 14.0625,14.5207241 11.8375,14.7770475 C12.2,15.0974518 12.5125,15.7126281 12.5125,16.6738411 C12.5125,18.0451716 12.5,19.1473625 12.5,19.4933992 C12.5,19.7625388 12.6875,20.0829431 13.1875,19.9804138 C17.2579776,18.5713648 19.9987734,14.6578201 20,10.2529384 C20,4.58818995 15.525,0 10,0 Z" id="Path"></path>
        </g>
    </g>
</svg>