<?xml version="1.0" encoding="UTF-8"?>
<svg width="19px" height="18px" viewBox="0 0 19 18" version="1.1" xmlns="http://www.w3.org/2000/svg" xmlns:xlink="http://www.w3.org/1999/xlink">
    <title>contact-phone</title>
    <g id="What-I-do" stroke="none" stroke-width="1" fill="none" fill-rule="evenodd">
        <g id="contact-phone" transform="translate(0.162000, 0.000223)" fill="#FFFFFF" fill-rule="nonzero">
            <path d="M17.486367,12.7193076 L13.5488671,11.0318077 C13.2033253,10.8845456 12.8020451,10.9834325 12.5644921,11.2743858 L10.8207421,13.4048545 C8.08408876,12.114549 5.88171179,9.91217199 4.59140623,7.17551864 L6.72187496,5.43176866 C7.01345917,5.19461509 7.11245942,4.79287491 6.96445308,4.44739366 L5.2769531,0.509893703 C5.11385659,0.135966929 4.707958,-0.069196359 4.31015623,0.0212218331 L0.653906265,0.864971825 C0.271058682,0.953379401 0,1.29435391 0,1.6872765 C0,10.7048545 7.30898433,17.9997765 16.3124999,17.9997765 C16.7055539,18.0000284 17.046719,17.7288459 17.1351561,17.3458701 L17.9789061,13.6896201 C18.0687364,13.2899086 17.8620454,12.882723 17.486367,12.7193076 L17.486367,12.7193076 Z" id="Path"></path>
        </g>
    </g>
</svg>