<svg xmlns="http://www.w3.org/2000/svg" width="2916" height="608" version="1" viewBox="0 0 29160 6080"><path fill="#00cbc6" d="M13925 5638c-3-7-4-960-3-2118l3-2105h830l3 189 2 188 49-63c141-186 322-304 561-365 225-58 557-46 783 28 260 85 513 280 677 522 250 369 352 998 249 1534-121 628-536 1076-1079 1166-477 79-906-63-1158-382l-42-54-2 734-3 733-433 3c-341 2-434 0-437-10zm1760-1683c115-24 207-76 299-169 96-96 137-163 182-294 44-129 64-254 71-442 19-552-190-942-557-1036-87-23-272-23-360-1-354 92-549 435-550 969 0 315 73 584 205 750 85 106 226 194 356 223 85 18 267 18 354 0zm-6313 674c-531-44-958-307-1207-745-82-144-156-356-190-544-22-128-31-435-16-570 60-524 323-957 736-1210 285-176 626-256 979-230 240 17 394 58 586 156 467 238 766 735 821 1362 12 136 9 317-4 340-7 9-243 12-1128 12H8830v33c1 116 41 279 97 397 109 226 324 340 646 340 152 0 249-20 362-75 145-70 242-160 304-282l21-43h379c208 0 380 3 384 6 3 3-8 44-24 90-113 320-294 568-527 721-157 104-316 168-512 209-197 40-376 50-588 33zm823-2021c-18-95-81-266-126-341-116-194-267-270-539-270-159 1-249 21-363 80-96 50-200 154-250 251-36 69-87 237-87 288v24h1372l-7-32zm8755 2021c-580-51-1025-342-1261-824-69-140-110-264-138-407-68-355-46-734 60-1051 33-97 121-277 178-361 243-360 617-582 1089-646 122-16 417-14 547 4 369 53 699 219 928 466 183 198 324 484 377 767 53 286 53 551-1 823-94 472-373 851-775 1056-282 143-641 205-1004 173zm368-674c138-29 273-109 358-213 26-31 69-102 95-157 82-172 113-336 113-600 0-320-47-512-171-703-124-189-312-283-568-285-140-1-213 13-313 58-147 68-248 173-329 342-146 306-147 860-2 1171 98 212 251 343 450 386 86 19 280 20 367 1zm6267 678c-469-28-816-160-1042-396-162-169-236-323-273-564-6-39-10-89-8-110l3-38h830l7 74c14 156 118 294 280 371 206 97 489 99 694 5 140-64 214-169 216-302 1-165-89-247-367-336-110-35-303-85-650-167-411-97-608-189-763-355-72-77-129-173-157-265-41-135-27-411 30-573 50-144 174-306 311-403 227-162 574-248 999-247 502 1 850 108 1091 336 171 161 286 399 296 612l3 60h-829l-12-67c-33-179-123-265-333-319-154-39-394-34-515 12-129 48-180 116-181 239 0 63 4 82 27 120 65 112 234 183 638 270 571 122 775 190 968 323 137 94 251 242 292 377 28 90 39 232 29 364-20 259-102 438-287 618-182 178-390 275-703 327-190 32-419 45-594 34zm-18555-49c-19-2-82-9-140-15-387-42-619-235-670-559-6-41-10-421-10-1032v-968l-257-2-258-3v-590l257-3 258-2 2-468 3-467h870l3 467 2 468 313 2 312 3 3 284c2 201-1 288-9 297-9 11-70 14-316 14h-304l3 848c3 785 4 850 21 892 55 138 162 162 577 127l25-2 3 334c1 184-1 338-5 342-16 16-186 30-413 33-129 3-251 3-270 0zm-6315-36c-3-7-4-983-3-2168l3-2155h960v4330l-478 3c-377 2-479 0-482-10zm1690 0c-3-7-4-715-3-1573l3-1560h830l5 207 5 207 63-84c140-188 339-316 590-381 254-65 625-43 858 51 300 120 485 361 553 719 40 207 42 293 39 1376l-3 1045h-870l-6-1015c-5-1002-5-1016-27-1105-73-297-215-409-517-408-317 1-495 121-584 393-55 167-55 161-61 1185l-5 950-433 3c-341 2-434 0-437-10zm9170 0c-3-7-4-715-3-1573l3-1560h830l5 272 5 273 32-63c47-88 119-181 210-268 154-147 345-246 553-285 93-18 269-19 335-2l50 13v810l-35-1c-19-1-91-6-159-11-222-17-372 6-526 81-187 92-311 250-373 476-45 162-46 172-51 1025l-6 820-433 3c-341 2-434 0-437-10zm9750 0c-3-7-4-983-3-2168l3-2155h870v4330l-433 3c-341 2-434 0-437-10zm1550 0c-3-7-4-715-3-1573l3-1560h870v3140l-433 3c-341 2-434 0-437-10zm4812 5c-4-3-7-214-7-468 0-345 3-464 12-473 19-19 941-17 957 2 8 9 10 143 9 477l-3 464-481 3c-264 1-484-1-487-5zM22875 938c-3-7-4-171-3-363l3-350h870v720l-433 3c-342 2-434 0-437-10z"/></svg>