<?xml version="1.0" encoding="UTF-8"?>
<svg width="600px" height="75px" viewBox="0 0 600 75" version="1.1" xmlns="http://www.w3.org/2000/svg" xmlns:xlink="http://www.w3.org/1999/xlink">
    <title>logo-radboudumc</title>
    <g id="What-I-do" stroke="none" stroke-width="1" fill="none" fill-rule="evenodd">
        <g id="logo-radboudumc" fill-rule="nonzero">
            <path d="M25.4,6.7 C34.9,6.7 40.3,10.2 40.3,19 C40.3,29.7 32.1,31.9 22.8,31.9 L20.4,31.9 L20.4,6.8 L25.4,6.8 L25.4,6.7 Z M39,35.9 C47.7,32.8 54.3,26.7 54.3,16.9 C54.3,3.1 40.9,5.68434189e-14 29,5.68434189e-14 L1.4,5.68434189e-14 C0.2,5.68434189e-14 -2.84217094e-14,0.6 -2.84217094e-14,1.6 L-2.84217094e-14,3.7 C-2.84217094e-14,5.4 0.6,5.5 2.8,6.1 L7.4,7.4 L7.4,65.3 L2.8,66.5 C0.6,67.1 -2.84217094e-14,67.2 -2.84217094e-14,68.9 L-2.84217094e-14,71 C-2.84217094e-14,72 0.2,72.7 1.4,72.7 L26.4,72.7 C27.6,72.7 27.8,72.1 27.8,71 L27.8,68.9 C27.8,67.2 27.2,67.1 25,66.5 L20.4,65.3 L20.4,37.9 L27,37.9 C31.7,48.8 41.8,66.4 45.1,70.9 C46.4,72.6 46.8,72.7 48.5,72.7 L62.5,72.7 C63.7,72.7 63.9,72.1 63.9,71 L63.9,68.9 C63.9,66.9 62.9,67 61.1,66.5 C58.3,65.8 57.6,65.3 55.3,62.3 C51.8,57.5 43.7,45.7 39,35.9 Z M79.9,59 C79.9,53.9 82.9,52.9 85.6,52.2 L96.7,49.5 L96.7,60.5 C92.8,64 88.9,65.4 85.9,65.4 C83.2,65.5 79.9,64.4 79.9,59 Z M154.9,59.3 C151.6,62.8 147.8,65.4 143.3,65.4 C135,65.4 131.5,56.7 131.5,46.8 C131.5,35.1 136.6,27.9 144.2,27.9 C152.2,27.9 155,35.8 155,46.7 L155,59.3 L154.9,59.3 Z M166.4,2.5 C166.4,1 165.9,0 164,0 L148.7,0 C147.5,0 147.3,0.6 147.3,1.6 L147.3,3 C147.3,4.9 147.9,5 150.1,5.6 L155,7.1 L155,24.8 C153.3,23.2 149.3,20.9 143.4,20.9 C132.2,20.9 119.4,29.1 119.4,49.1 C119.4,66.6 129.1,74.1 138.7,74.1 C144.8,74.1 150,71 155,65.9 L155,70.2 C155,71.8 155.5,72.7 157.4,72.7 L172.7,72.7 C173.8,72.7 174,72.1 174,71 L174,69.6 C174,67.7 173.4,67.6 171.2,67 L166.3,65.5 C166.4,65.5 166.4,2.5 166.4,2.5 Z M338.5,24.8 C338.5,23.3 338,22.3 336.1,22.3 L320.8,22.3 C319.6,22.3 319.5,22.9 319.5,24 L319.5,25.3 C319.5,27.2 320.1,27.3 322.3,27.9 L327.2,29.3 L327.2,59.3 C323,63.8 319.8,65.4 315.6,65.4 C307.6,65.4 307,59.3 307,48.8 L307,24.7 C307,23.2 306.5,22.2 304.6,22.2 L289.1,22.2 C287.9,22.2 287.8,22.8 287.8,23.9 L287.8,25.2 C287.8,27.1 288.4,27.2 290.6,27.8 L295.5,29.2 L295.5,54.6 C295.5,70.7 303,73.9 310.5,73.9 C317.3,73.9 322.3,71.2 327.1,65.7 L327.1,70 C327.1,71.6 327.6,72.5 329.5,72.5 L344.8,72.5 C345.9,72.5 346.2,71.9 346.2,70.8 L346.2,69.6 C346.2,67.7 345.6,67.6 343.4,67 L338.5,65.5 C338.5,65.5 338.5,24.8 338.5,24.8 Z M114.4,72.6 C115.6,72.6 115.8,72 115.8,70.9 L115.8,69.6 C115.8,67.7 115.2,67.6 113,67 L108.1,65.5 L108.1,37.4 C108.1,24.9 99.4,20.8 88.1,20.8 C81.3,20.8 75.9,22.3 74.8,22.6 C72,23.4 71.5,24.1 71.2,26.8 L70.6,32.4 C70.5,33.4 70.8,33.8 71.5,33.8 C72.4,33.8 73.7,33.1 74.4,32.7 C77.8,30.7 83,29.2 87.4,29.2 C96.3,29.2 96.7,35.1 96.7,39.2 L96.7,44.4 L77.5,48.2 C71.2,49.5 67.7,52.6 67.7,59.9 C67.7,68 71.8,73.9 80.6,73.9 C86.3,73.9 90.4,72 96.7,66.1 L96.7,69.9 C96.7,71.5 97.2,72.4 99.1,72.4 C99.1,72.6 114.4,72.6 114.4,72.6 Z M215.3,47.8 C215.3,61.1 208.6,67.4 201.1,67.4 C193.2,67.4 191.9,60.4 191.9,52.8 L191.9,35.6 C195.2,32.1 199.1,29.5 203.5,29.5 C211.8,29.4 215.3,38.1 215.3,47.8 Z M227.4,45.5 C227.4,28.5 217.7,20.8 208.1,20.8 C202.1,20.8 196.9,23.8 191.8,29 L191.8,2.5 C191.8,1 191.3,0 189.4,0 L174.1,0 C173,0 172.8,0.6 172.8,1.6 L172.8,3 C172.8,4.9 173.4,5 175.6,5.6 L180.5,7.1 L180.5,66.2 C180.5,67.6 180.6,68.6 182.5,69.8 C185.8,71.9 193.9,74.1 201.3,74.1 C217.8,74.1 227.4,62.4 227.4,45.5 Z M385.7,59.3 C382.4,62.8 378.6,65.4 374.1,65.4 C365.8,65.4 362.3,56.7 362.3,46.8 C362.3,35.1 367.4,27.9 375,27.9 C383,27.9 385.8,35.8 385.8,46.7 L385.8,59.3 L385.7,59.3 Z M397.1,2.5 C397.1,1 396.6,0 394.7,0 L379.4,0 C378.2,0 378,0.6 378,1.6 L378,3 C378,4.9 378.6,5 380.8,5.6 L385.7,7.1 L385.7,24.8 C383.9,23.2 380,20.9 374.1,20.9 C362.9,20.9 350.1,29.1 350.1,49.1 C350.1,66.6 359.9,74.1 369.4,74.1 C375.5,74.1 380.7,71 385.7,65.9 L385.7,70.2 C385.7,71.8 386.2,72.7 388.1,72.7 L403.4,72.7 C404.5,72.7 404.7,72.1 404.7,71 L404.7,69.6 C404.7,67.7 404.1,67.6 401.9,67 L397,65.5 C397.1,65.5 397.1,2.5 397.1,2.5 Z M260,66.9 C251.6,66.9 246.6,58.6 246.6,47.5 C246.6,36.5 251.5,28 260,28 C268.3,28 273.5,36.2 273.5,47.4 C273.5,58.4 268.5,66.9 260,66.9 Z M258.8,74.1 C276.4,74.1 285.2,60.6 285.2,46.2 C285.2,32.8 277.5,20.9 261,20.9 C243.4,20.9 234.6,34.4 234.6,48.8 C234.6,62.1 242.3,74.1 258.8,74.1 Z" id="Shape" fill="#006991"></path>
            <path d="M600,24.2 C600,23 599.6,22.9 598.5,22.5 C595.9,21.6 591.6,20.8 587,20.8 C566.6,20.8 561.2,35.1 561.2,47.3 C561.2,59.8 566.4,74 587,74 C591.6,74 595.9,73.3 598.5,72.3 C599.5,71.9 600,71.8 600,70.5 L600,62.8 C600,62.1 599.8,61.8 599.3,61.8 C599,61.8 598.5,62 597.5,62.4 C595.8,63.1 592.4,64.7 587.7,64.7 C578.2,64.7 572.4,58.9 572.4,47.2 C572.4,35.5 578.3,29.9 587.7,29.9 C592.5,29.9 595.9,31.5 597.5,32.2 C598.4,32.6 599,32.8 599.3,32.8 C599.8,32.8 600,32.5 600,31.8 L600,24.2 Z M415.1,22.3 C413.9,22.3 413.8,22.9 413.8,24 L413.8,25.3 C413.8,27.2 414.4,27.3 416.6,27.9 L421.5,29.3 L421.5,52.6 C421.5,70.2 429.4,74 437.7,74 C444.3,74 448.6,71.6 452.6,66.2 L452.9,66.2 L452.9,71.3 C452.9,72.1 453.2,72.6 454.2,72.6 L462.4,72.6 C463.3,72.6 463.6,72.2 463.6,71.3 L463.6,23.5 C463.6,22.7 463.2,22.2 462.4,22.2 L453.9,22.2 C453,22.2 452.7,22.6 452.7,23.5 L452.7,57.8 C449.5,62.3 445.7,64.4 441,64.4 C433,64.4 432.6,58.6 432.6,49.5 L432.6,23.6 C432.6,22.8 432.2,22.3 431.4,22.3 L415.1,22.3 L415.1,22.3 Z M477.4,71.3 C477.4,72.1 477.7,72.6 478.6,72.6 L487.1,72.6 C488,72.6 488.3,72.2 488.3,71.3 L488.3,37 C491.5,32.5 495.4,30.4 500,30.4 C508,30.4 508.4,36.2 508.4,45.3 L508.4,71.2 C508.4,72 508.7,72.5 509.7,72.5 L518.2,72.5 C519.1,72.5 519.4,72.1 519.4,71.2 L519.4,36.9 C522.6,32.4 526.4,30.3 531.1,30.3 C539.1,30.3 539.5,36.1 539.5,45.2 L539.5,71.1 C539.5,71.9 539.8,72.4 540.7,72.4 L549.2,72.4 C550.1,72.4 550.4,72 550.4,71.1 L550.4,42 C550.4,24.2 542.6,20.6 534.1,20.6 C526.7,20.6 521.6,23.3 516.9,29 C514,22.4 508.7,20.6 503.1,20.6 C496.6,20.6 492.3,23 488.2,28.4 L488.1,28.4 L488.1,23.3 C488.1,22.5 487.7,22 486.9,22 L478.7,22 C477.8,22 477.5,22.4 477.5,23.3 L477.5,71.3 L477.4,71.3 Z" id="Shape" fill="#00AFDC"></path>
        </g>
    </g>
</svg>