<?xml version="1.0" encoding="UTF-8"?>
<svg width="600px" height="106px" viewBox="0 0 600 106" version="1.1" xmlns="http://www.w3.org/2000/svg" xmlns:xlink="http://www.w3.org/1999/xlink">
    <title>logo-malmberg</title>
    <g id="Page-1" stroke="none" stroke-width="1" fill="none" fill-rule="evenodd">
        <g id="logo-malmberg" transform="translate(0.000000, 0.300000)" fill-rule="nonzero">
            <path d="M172.1,103.5 L172.1,18.8 L190.7,18.8 L190.7,87.7 L218,87.7 L218,103.5 L172.1,103.5 Z M403.9,103.5 L403.9,18.8 L455.3,18.8 L455.3,33.5 L422.4,33.5 L422.4,53 L448.1,53 L448.1,67.6 L422.4,67.6 L422.4,88.5 L455.3,88.5 L455.3,103.6 C455.3,103.5 403.9,103.5 403.9,103.5 Z M495.2,32.6 L487.7,32.6 L487.7,56.5 L496,56.5 C503.8,56.5 506.9,51.5 506.9,44.2 C506.9,36.9 503,32.6 495.2,32.6 M508.4,103.6 L497.1,70.2 L487.7,70.2 L487.7,103.6 L469.5,103.6 L469.5,18.8 L495.7,18.8 C500.6,18.5 505.6,19.1 510.3,20.4 C520.1,24.2 526.2,34 525.2,44.4 C525.3,49.6 524.1,54.6 521.5,59.1 C519.5,62.2 516.7,64.7 513.4,66.3 L528.9,103.4 L508.4,103.6 Z M133.3,71.5 L124.9,37.4 L116.8,71.5 L133.3,71.5 Z M141,103.5 L136.4,86.1 L112.9,86.1 L108.7,103.5 L91.6,103.5 L117,18.8 L135.9,18.8 L160,103.5 L141,103.5 Z M357.9,66.7 L348.8,66.7 L348.8,88.7 L357.9,88.7 C365.7,88.7 370.6,86 370.6,77.5 C370.6,69 365.8,66.4 357.9,66.4 M356.1,32.3 L348.7,32.3 L348.7,52.7 L354.6,52.7 C362.3,52.7 368.2,51.4 368.2,42.2 C368.3,34.3 363.3,32.4 356.1,32.3 M380.3,99.4 C374.1,102.8 366.9,104.2 359.8,103.4 L330.8,103.4 L330.8,18.8 L359.7,18.8 C366.4,18 373.2,19.3 379.1,22.5 C384.5,27 387.5,33.8 387.2,40.9 C387.4,45.5 386,50.1 383.2,53.9 C381.1,56.5 378.3,58.4 375.1,59.4 C378.5,60.2 381.5,61.9 383.8,64.5 C387.6,68.7 389.7,74.3 389.5,80 C389.8,87.5 386.3,94.7 380.3,99.4 M591.3,103.5 L589.2,95.5 C584.4,101.7 577,105.2 569.1,104.8 C545.4,104.8 537.7,82.1 537.7,62 C537.7,40.5 545.4,17.5 570.7,17.5 C590.1,17.5 597.5,28.4 599.9,46.6 L583,49.3 C582.1,42.5 580.3,32.7 571.1,32.7 C557.5,32.7 557.5,52.3 557.5,61.6 C557.5,70.9 557.9,89.8 571.8,89.8 C581.6,89.8 582.9,80.7 583.1,73 L570.5,73 L570.5,58.4 L599.4,58.4 L599.4,103.6 L591.3,103.6 L591.3,103.5 Z M52.7,18.8 L39.3,70.6 L39.1,70.6 L27.2,18.8 L0,18.8 L0,103.5 L15.1,103.5 L15.1,35.6 L15.2,35.6 L30.5,103.5 L44.3,103.5 L61.3,36 L61.6,36 L61.6,103.5 L79.5,103.5 L79.5,18.8 L52.7,18.8 L52.7,18.8 Z" id="Shape" fill="#002D61"></path>
            <path d="M295.8,-2.84217094e-14 L268.5,6.8 L268.5,58.6 L245.5,12.8 L216.9,20 L237.4,103.7 L253.5,99.6 L238,35.6 L268.8,95.4 L282.1,92.1 L282.1,23.9 C282.1,23.9 294,69.1 295.7,75 C298.2,84.8 303.1,87.2 311.4,85.1 L317.6,83.5 L295.8,-2.84217094e-14 Z" id="Path" fill="#E01737"></path>
        </g>
    </g>
</svg>