<?xml version="1.0" encoding="UTF-8"?>
<svg width="43px" height="32px" viewBox="0 0 43 32" version="1.1" xmlns="http://www.w3.org/2000/svg" xmlns:xlink="http://www.w3.org/1999/xlink">
    <title>quote-open</title>
    <g id="What-I-do" stroke="none" stroke-width="1" fill="none" fill-rule="evenodd">
        <path d="M35.4293785,32 C36.4839925,31.8442822 37.519774,31.3381995 38.5367232,30.4817518 C39.5536723,29.6253041 40.4387947,28.593674 41.1920904,27.3868613 C41.9453861,26.1800487 42.4538606,24.8564477 42.7175141,23.4160584 C42.9811676,21.9756691 42.9246704,20.5547445 42.5480226,19.1532847 C40.8907721,18.6082725 39.3276836,17.9659367 37.8587571,17.2262774 C36.3898305,16.486618 35.165725,15.4939173 34.1864407,14.2481752 C34.0357815,12.1459854 34.73258,10.3357664 36.2768362,8.81751825 C37.8210923,7.29927007 40.0621469,6.15085158 43,5.37226277 L43,5.37226277 L41.4180791,0 C38.7062147,0.467153285 36.220339,1.30413625 33.960452,2.51094891 C31.700565,3.71776156 29.7608286,5.17761557 28.1412429,6.89051095 C26.5216573,8.60340633 25.259887,10.5304136 24.3559322,12.6715328 C23.4519774,14.8126521 23,17.0510949 23,19.3868613 C23,21.3333333 23.3578154,23.0656934 24.0734463,24.5839416 C24.7890772,26.1021898 25.7118644,27.406326 26.8418079,28.4963504 C27.9717514,29.5863747 29.2900188,30.4233577 30.7966102,31.0072993 C32.3032015,31.5912409 33.8474576,31.9221411 35.4293785,32 Z M12.4293785,32 C13.4839925,31.8442822 14.519774,31.3381995 15.5367232,30.4817518 C16.5536723,29.6253041 17.4387947,28.593674 18.1920904,27.3868613 C18.9453861,26.1800487 19.4538606,24.8564477 19.7175141,23.4160584 C19.9811676,21.9756691 19.9246704,20.5547445 19.5480226,19.1532847 C17.8907721,18.6082725 16.3276836,17.9659367 14.8587571,17.2262774 C13.3898305,16.486618 12.165725,15.4939173 11.1864407,14.2481752 C11.0357815,12.1459854 11.73258,10.3357664 13.2768362,8.81751825 C14.8210923,7.29927007 17.0621469,6.15085158 20,5.37226277 L20,5.37226277 L18.4180791,0 C15.7062147,0.467153285 13.220339,1.30413625 10.960452,2.51094891 C8.70056497,3.71776156 6.76082863,5.17761557 5.14124294,6.89051095 C3.52165725,8.60340633 2.25988701,10.5304136 1.3559322,12.6715328 C0.451977401,14.8126521 0,17.0510949 0,19.3868613 C0,21.3333333 0.357815443,23.0656934 1.07344633,24.5839416 C1.78907721,26.1021898 2.71186441,27.406326 3.84180791,28.4963504 C4.97175141,29.5863747 6.29001883,30.4233577 7.79661017,31.0072993 C9.30320151,31.5912409 10.8474576,31.9221411 12.4293785,32 Z" id="quote-open" fill="#FFFFFF" fill-rule="nonzero"></path>
    </g>
</svg>