<?xml version="1.0" encoding="UTF-8"?>
<svg width="45px" height="33px" viewBox="0 0 45 33" version="1.1" xmlns="http://www.w3.org/2000/svg" xmlns:xlink="http://www.w3.org/1999/xlink">
    <title>quote-close</title>
    <g id="What-I-do" stroke="none" stroke-width="1" fill="none" fill-rule="evenodd">
        <path d="M26.1,33 C28.8222222,32.4596491 31.35,31.5140351 33.6833333,30.1631579 C36.0166667,28.8122807 38.0194444,27.2105263 39.6916667,25.3578947 C41.3638889,23.5052632 42.6666667,21.4982456 43.6,19.3368421 C44.5333333,17.1754386 45,15.0526316 45,12.9684211 C45,10.8070175 44.6305556,8.93508772 43.8916667,7.35263158 C43.1527778,5.77017544 42.1805556,4.45789474 40.975,3.41578947 C39.7694444,2.37368421 38.3888889,1.56315789 36.8333333,0.984210526 C35.2777778,0.405263158 33.7222222,0.0771929825 32.1666667,0 C31.0777778,0.154385965 30.0083333,0.656140351 28.9583333,1.50526316 C27.9083333,2.35438596 26.9944444,3.37719298 26.2166667,4.57368421 C25.4388889,5.77017544 24.9138889,7.08245614 24.6416667,8.51052632 C24.3694444,9.93859649 24.4277778,11.3473684 24.8166667,12.7368421 C26.5277778,13.277193 28.1416667,13.9140351 29.6583333,14.6473684 C31.175,15.3807018 32.4388889,16.3649123 33.45,17.6 C33.6055556,19.6842105 32.8277778,21.6912281 31.1166667,23.6210526 C29.4055556,25.5508772 27.0333333,26.9017544 24,27.6736842 L24,27.6736842 L26.1,33 Z M2.1,33 C4.82222222,32.4596491 7.35,31.5140351 9.68333333,30.1631579 C12.0166667,28.8122807 14.0194444,27.2105263 15.6916667,25.3578947 C17.3638889,23.5052632 18.6666667,21.4982456 19.6,19.3368421 C20.5333333,17.1754386 21,15.0526316 21,12.9684211 C21,10.8070175 20.6305556,8.93508772 19.8916667,7.35263158 C19.1527778,5.77017544 18.1805556,4.45789474 16.975,3.41578947 C15.7694444,2.37368421 14.3888889,1.56315789 12.8333333,0.984210526 C11.2777778,0.405263158 9.72222222,0.0771929825 8.16666667,0 C7.07777778,0.154385965 6.00833333,0.656140351 4.95833333,1.50526316 C3.90833333,2.35438596 2.99444444,3.37719298 2.21666667,4.57368421 C1.43888889,5.77017544 0.913888889,7.08245614 0.641666667,8.51052632 C0.369444444,9.93859649 0.427777778,11.3473684 0.816666667,12.7368421 C2.52777778,13.277193 4.14166667,13.9140351 5.65833333,14.6473684 C7.175,15.3807018 8.43888889,16.3649123 9.45,17.6 C9.60555556,19.6842105 8.82777778,21.6912281 7.11666667,23.6210526 C5.40555556,25.5508772 3.03333333,26.9017544 0,27.6736842 L0,27.6736842 L2.1,33 Z" id="quote-close" fill="#FFFFFF" fill-rule="nonzero"></path>
    </g>
</svg>