<?xml version="1.0" encoding="UTF-8"?>
<svg width="53px" height="61px" viewBox="0 0 53 61" version="1.1" xmlns="http://www.w3.org/2000/svg" xmlns:xlink="http://www.w3.org/1999/xlink">
    <title>tool-html-5-logo</title>
    <g id="What-I-do" stroke="none" stroke-width="1" fill="none" fill-rule="evenodd">
        <g id="tool-html-5-logo" transform="translate(0.000000, 0.789062)" fill-rule="nonzero">
            <polyline id="Path" fill="#E44D26" points="4.81283422 54.0204181 0 0 52.9120078 0 48.0991736 53.9912494 26.4122509 60"></polyline>
            <polyline id="Path" fill="#F16529" points="26.4560039 55.405931 26.4560039 4.43364123 48.0845892 4.43364123 43.9572193 50.520175"></polyline>
            <path d="M9.8298493,11.04035 L26.4560039,11.04035 L26.4560039,17.6616432 L17.0928537,17.6616432 L17.7053962,24.4433641 L26.4560039,24.4433641 L26.4560039,31.0500729 L11.6383082,31.0500729 M11.9299951,34.3753038 L18.580457,34.3753038 L19.0471561,39.6694215 L26.4560039,41.6528926 L26.4560039,48.5658726 L12.8633933,44.7739426" id="Shape" fill="#EBEBEB"></path>
            <path d="M43.0238211,11.04035 L26.4268352,11.04035 L26.4268352,17.6616432 L42.4112786,17.6616432 M41.8133204,24.4433641 L26.4268352,24.4433641 L26.4268352,31.0646573 L34.594069,31.0646573 L33.8210987,39.6694215 L26.4268352,41.6528926 L26.4268352,48.5367039 L39.9902771,44.7739426" id="Shape" fill="#FFFFFF"></path>
        </g>
    </g>
</svg>