<?xml version="1.0" encoding="UTF-8"?>
<svg width="52px" height="60px" viewBox="0 0 52 60" version="1.1" xmlns="http://www.w3.org/2000/svg" xmlns:xlink="http://www.w3.org/1999/xlink">
    <title>tool-axure-logo</title>
    <g id="What-I-do" stroke="none" stroke-width="1" fill="none" fill-rule="evenodd">
        <g id="tool-axure-logo" transform="translate(0.340749, 0.610287)" fill-rule="nonzero">
            <path d="M48.5587235,1.55562429 L48.5587235,1.55499733 C48.1006154,0.581321479 47.1184171,0.000125394386 45.9307305,0.000125394386 L41.3433682,0.000125394386 C40.0111479,0.000125394386 39.014496,0.536806996 38.4897777,1.50295927 L31.6910553,11.4372116 L37.643315,19.5777185 L48.0352614,4.67038387 C49.1758174,3.28479235 48.7811792,2.03023641 48.5587235,1.55562429" id="Fill-12" fill="#74BB11"></path>
            <path d="M12.7138289,1.39060724 L12.7075447,1.38120277 C11.6713036,0 10.2919529,0 9.83824396,0 L5.35142664,0 C4.20207246,0 3.26072059,0.5279041 2.7686789,1.44766101 C2.26281219,2.38936167 2.36964123,3.52165954 3.06968523,4.56994416 L19.6922751,27.613397 L0.578056287,54.2738079 C-0.0899390417,55.2763241 -0.183571497,56.391067 0.321038342,57.3321407 C0.815593696,58.2518976 1.75757392,58.7785478 2.90504295,58.7785478 L7.49240519,58.7785478 C8.67192282,58.7785478 9.70879237,58.1666304 10.2278556,57.2017321 L31.6225587,27.719354 L12.7138289,1.39060724 Z" id="Fill-14" fill="#009CD9"></path>
            <path d="M50.8404022,54.5065998 L37.5043746,36.2042525 L31.6382062,44.2914674 L42.1853693,58.3674472 L42.4593535,58.4871973 C42.9143198,58.6834373 43.3491762,58.7781089 43.789689,58.7781089 L48.2752495,58.7781089 C49.3586207,58.7781089 50.2786067,58.2966002 50.7995552,57.4558408 C51.3330723,56.5943916 51.3481539,55.5197745 50.8404022,54.5065998" id="Fill-16" fill="#EB2084"></path>
        </g>
    </g>
</svg>