<?xml version="1.0" encoding="UTF-8"?>
<svg width="41px" height="41px" viewBox="0 0 41 41" version="1.1" xmlns="http://www.w3.org/2000/svg" xmlns:xlink="http://www.w3.org/1999/xlink">
    <title>what-visual</title>
    <g id="What-I-do" stroke="none" stroke-width="1" fill="none" fill-rule="evenodd">
        <path d="M5.2047494,40.5112503 C2.61818004,40.5112503 0.511034594,38.4079712 0.511034594,35.8185021 C0.511034594,34.5648472 0.998191156,33.3865856 1.88551204,32.4992647 L12.495666,21.8891108 L9.79214036,19.1894515 C9.76894243,19.1710865 9.74671108,19.1517549 9.72351315,19.1295235 C9.7012818,19.1063256 9.68291677,19.0840942 9.66358516,19.0647626 L6.77544268,16.1804865 C6.75611107,16.1650212 6.73774605,16.1505225 6.71841444,16.1311909 C6.70004941,16.1128258 6.68458412,16.0934942 6.66911883,16.0751292 L3.75874501,13.1637888 C3.74714604,13.1521898 3.73168075,13.1415575 3.72104837,13.1299585 C3.7094494,13.1183595 3.69785044,13.1038608 3.68625147,13.0922618 L0.722715719,10.1277595 C0.586427871,9.99243825 0.511034594,9.8068548 0.511034594,9.61450528 C0.511034594,9.42215576 0.586427871,9.23753889 0.722715719,9.10125105 L9.097169,0.726797767 C9.36877811,0.455188652 9.859801,0.455188652 10.1314101,0.726797767 L21.8966277,12.4842827 L29.0212924,5.35961801 C29.0212924,5.35961801 29.0212924,5.35575169 29.0212924,5.35961801 C29.0251588,5.35961801 29.0251588,5.35961801 29.0251588,5.35575169 L29.0251588,5.35575169 C29.070588,5.3103224 29.12375,5.27262576 29.1798116,5.23879545 L36.7578026,0.764494406 C36.7848668,0.749029118 36.8109645,0.738396733 36.8370622,0.722931445 C37.1579669,0.582777276 37.5020696,0.51125032 37.8568046,0.51125032 C39.2651124,0.51125032 40.4124434,1.65954793 40.4124434,3.06785569 C40.4124434,3.41099176 40.3447828,3.74736177 40.2123612,4.06440016 C40.1978625,4.1020968 40.1785309,4.13592712 40.1562996,4.16975744 L35.7834895,11.8347406 C35.7496591,11.8956352 35.7080962,11.9516969 35.6597672,12.0009925 C35.6027389,12.0570542 35.5418443,12.1024834 35.4741837,12.1372803 C34.9831608,12.6804986 33.8812591,13.7795006 31.4193786,16.2413811 L28.5380022,19.1217909 L40.0277444,30.5999341 C40.2278265,30.6637284 40.3940784,30.8116152 40.473338,31.0116974 C40.5864279,31.2833065 40.5226336,31.5926122 40.3148188,31.800427 L31.9403655,40.1787466 C31.8040776,40.3150345 31.6194608,40.3904278 31.4271112,40.3904278 L31.3062887,40.3904278 C31.1129726,40.3904278 30.9283557,40.3150345 30.7920679,40.1787466 L19.1331741,28.5275855 L8.52302019,39.1367729 C7.63569931,40.0240938 6.45840429,40.5112503 5.2047494,40.5112503 L5.2047494,40.5112503 Z M2.80217508,33.8355655 C2.48742374,34.3361339 2.31677543,34.9172862 2.31677543,35.5249838 C2.31677543,37.2760251 3.7426369,38.7056788 5.49841844,38.7056788 C6.105168,38.7056788 6.68726836,38.5350304 7.1868887,38.2202791 L2.80217508,33.8355655 Z M29.236547,36.432264 L31.1582366,38.3539536 L38.37192,31.1402702 L27.3774284,20.156207 L20.1665891,27.3698905 L22.3442512,29.5437604 L24.7589248,27.1290867 C25.0367023,26.8513092 25.4851282,26.8513092 25.7629057,27.1290867 C26.0406833,27.4068643 26.0406833,27.8552901 25.7629057,28.1330677 L23.3482321,30.5477413 L25.2850905,32.4845997 L27.6959719,30.0737182 C27.9737494,29.7959407 28.4212272,29.7959407 28.6990048,30.0737182 C28.9767823,30.3514957 28.9767823,30.7989735 28.6990048,31.0767511 L26.2881233,33.4876325 L28.2287739,35.4244909 L30.6396553,33.0136094 C30.9174329,32.7358319 31.3658587,32.7358319 31.6436362,33.0136094 C31.9214138,33.291387 31.9214138,33.7398128 31.6436362,34.0175904 L29.236547,36.432264 Z M3.75022127,32.7765979 L8.24964848,37.2760251 C11.5867711,33.9398506 30.5249417,15.0007318 33.8620643,11.6645573 L29.3626371,7.16418205 L3.75022127,32.7765979 Z M11.4455122,18.6526058 L13.6563559,20.8596573 L20.8709874,13.6450258 L9.82719734,2.61735252 L2.61351389,9.82724379 L4.55416443,11.7641022 L6.91669554,9.40157105 C7.19447307,9.12379352 7.64195087,9.12379352 7.91972841,9.40157105 C8.19750594,9.67934859 8.19750594,10.1268264 7.91972841,10.4046039 L5.5571973,12.7680831 L7.49405567,14.7049414 L9.85658677,12.3414623 C10.1343643,12.0636848 10.5827902,12.0636848 10.8605677,12.3414623 C11.1383452,12.6192398 11.1383452,13.0676657 10.8605677,13.3454432 L8.49803658,15.7079743 L10.4348949,17.6448327 L12.797426,15.2823016 C13.0752036,15.004524 13.5236294,15.004524 13.801407,15.2823016 C14.0791845,15.5600791 14.0791845,16.0085049 13.801407,16.2862825 L11.4455122,18.6526058 Z M30.5135652,6.3052522 L34.7096176,10.5013046 L36.832293,6.78685966 L34.1844,4.13896666 L30.5135652,6.3052522 Z M35.4471976,3.39095822 L37.5613406,5.50510122 L38.5387762,3.79103371 C38.5833343,3.66873575 38.6089316,3.53885342 38.6089316,3.40991914 C38.6089316,2.8098059 38.1206878,2.32440625 37.5243668,2.32440625 C37.3869001,2.32440625 37.2541736,2.3500035 37.1280834,2.39835386 L35.4471976,3.39095822 Z" id="what-visual" fill="#FFFFFF"></path>
    </g>
</svg>