<?xml version="1.0" encoding="UTF-8"?>
<svg width="48px" height="40px" viewBox="0 0 48 40" version="1.1" xmlns="http://www.w3.org/2000/svg" xmlns:xlink="http://www.w3.org/1999/xlink">
    <title>what-ux</title>
    <g id="What-I-do" stroke="none" stroke-width="1" fill="none" fill-rule="evenodd">
        <g id="what-ux" fill="#FFFFFF">
            <path d="M17.9752,12.3294545 L2.9752,12.3294545 C1.4248,12.3294545 0.1624,11.1818182 0.1624,9.77309091 L0.1624,2.95418182 C0.1624,1.54545455 1.4248,0.397818182 2.9752,0.397818182 L17.9752,0.397818182 C19.5248,0.397818182 20.7872,1.54545455 20.7872,2.95418182 L20.7872,9.77309091 C20.7872,11.1818182 19.5248,12.3294545 17.9752,12.3294545 L17.9752,12.3294545 Z M2.9752,2.10254545 C2.4592,2.10254545 2.0376,2.48581818 2.0376,2.95418182 L2.0376,9.77309091 C2.0376,10.2414545 2.4592,10.6247273 2.9752,10.6247273 L17.9752,10.6247273 C18.4904,10.6247273 18.9128,10.2414545 18.9128,9.77309091 L18.9128,2.95418182 C18.9128,2.48581818 18.4904,2.10254545 17.9752,2.10254545 L2.9752,2.10254545 Z" id="Fill-1"></path>
            <path d="M44.2248,12.3294545 L29.2248,12.3294545 C27.6752,12.3294545 26.4128,11.1818182 26.4128,9.77309091 L26.4128,2.95418182 C26.4128,1.54545455 27.6752,0.397818182 29.2248,0.397818182 L44.2248,0.397818182 C45.7752,0.397818182 47.0376,1.54545455 47.0376,2.95418182 L47.0376,9.77309091 C47.0376,11.1818182 45.7752,12.3294545 44.2248,12.3294545 L44.2248,12.3294545 Z M29.2248,2.10254545 C28.7096,2.10254545 28.2872,2.48581818 28.2872,2.95418182 L28.2872,9.77309091 C28.2872,10.2414545 28.7096,10.6247273 29.2248,10.6247273 L44.2248,10.6247273 C44.7408,10.6247273 45.1624,10.2414545 45.1624,9.77309091 L45.1624,2.95418182 C45.1624,2.48581818 44.7408,2.10254545 44.2248,2.10254545 L29.2248,2.10254545 Z" id="Fill-2"></path>
            <path d="M32.9752,39.6021818 L14.2248,39.6021818 C12.6752,39.6021818 11.4128,38.4545455 11.4128,37.0458182 L11.4128,30.2269091 C11.4128,28.8181818 12.6752,27.6705455 14.2248,27.6705455 L32.9752,27.6705455 C34.5248,27.6705455 35.7872,28.8181818 35.7872,30.2269091 L35.7872,37.0458182 C35.7872,38.4545455 34.5248,39.6021818 32.9752,39.6021818 L32.9752,39.6021818 Z M14.2248,29.3752727 C13.7096,29.3752727 13.2872,29.7585455 13.2872,30.2269091 L13.2872,37.0458182 C13.2872,37.5141818 13.7096,37.8974545 14.2248,37.8974545 L32.9752,37.8974545 C33.4904,37.8974545 33.9128,37.5141818 33.9128,37.0458182 L33.9128,30.2269091 C33.9128,29.7585455 33.4904,29.3752727 32.9752,29.3752727 L14.2248,29.3752727 Z" id="Fill-3"></path>
            <path d="M22.6624,25.1134545 L20.7872,25.1134545 L20.7872,23.4094545 C20.7872,23.4065455 20.7752,22.7047273 20.3936,22.0429091 C19.9344,21.2414545 19.1408,20.8523636 17.9752,20.8523636 L14.2248,20.8523636 C12.3408,20.8523636 10.8784,20.0792727 10.1064,18.6763636 C9.5528,17.6734545 9.5376,16.6989091 9.5376,16.5905455 L9.5376,14.8865455 L11.4128,14.8865455 L11.4128,16.5905455 C11.4128,16.5934545 11.4248,17.2952727 11.8064,17.9570909 C12.2656,18.7585455 13.0592,19.1476364 14.2248,19.1476364 L17.9752,19.1476364 C19.8592,19.1476364 21.3216,19.9207273 22.0936,21.3236364 C22.6472,22.3265455 22.6624,23.3010909 22.6624,23.4094545 L22.6624,25.1134545 Z" id="Fill-4"></path>
            <path d="M26.4128,25.1134545 L24.5376,25.1134545 L24.5376,23.4094545 C24.5376,23.3010909 24.5528,22.3265455 25.1064,21.3236364 C25.8784,19.9207273 27.3408,19.1476364 29.2248,19.1476364 L32.9752,19.1476364 C34.1408,19.1476364 34.9344,18.7585455 35.3936,17.9570909 C35.7752,17.2952727 35.7872,16.5934545 35.7872,16.5854545 L35.7872,14.8865455 L37.6624,14.8865455 L37.6624,16.5905455 C37.6624,16.6989091 37.6472,17.6734545 37.0936,18.6763636 C36.3216,20.0792727 34.8592,20.8523636 32.9752,20.8523636 L29.2248,20.8523636 C28.0592,20.8523636 27.2656,21.2414545 26.8064,22.0429091 C26.4248,22.7047273 26.4128,23.4065455 26.4128,23.4145455 L26.4128,25.1134545 Z" id="Fill-5"></path>
        </g>
    </g>
</svg>