<?xml version="1.0" encoding="UTF-8"?>
<svg width="48px" height="44px" viewBox="0 0 48 44" version="1.1" xmlns="http://www.w3.org/2000/svg" xmlns:xlink="http://www.w3.org/1999/xlink">
    <title>what-prototyping</title>
    <g id="What-I-do" stroke="none" stroke-width="1" fill="none" fill-rule="evenodd">
        <g id="what-prototyping" fill="#FFFFFF">
            <path d="M34.888,43.8333333 C33.276,43.8333333 31.6093333,43.5 30,42.7213333 L13.1666667,34.776 C12.1666667,34.276 11.388,33.4426667 11,32.388 C10.6666667,31.3333333 10.7213333,30.1666667 11.1666667,29.1666667 C11.2213333,29 11.388,28.8333333 11.612,28.7213333 C13.3333333,27.6666667 16.7786667,27.1666667 18.7786667,28.0546667 L11,15.5546667 C10.388,14.6093333 10.2213333,13.4426667 10.4453333,12.388 C10.6666667,11.3333333 11.3906667,10.3333333 12.3333333,9.776 C14.2786667,8.60933333 16.9453333,9.164 18.112,11.164 L21.5573333,16.776 C21.836,16.4973333 22.1693333,16.164 22.5026667,15.9973333 C23.7813333,15.2186667 25.336,15.164 26.5573333,15.8306667 C26.8906667,15.164 27.3906667,14.664 28.0573333,14.2186667 C29.336,13.44 30.8906667,13.3853333 32.112,14.052 C32.4453333,13.3853333 32.9453333,12.8853333 33.612,12.44 C34.612,11.828 35.8333333,11.6613333 36.9453333,11.94 C38,12.2186667 38.8906667,12.8853333 39.4453333,13.828 L45.612,25.0493333 C48.612,30.5493333 46.6666667,36.4946667 43.3906667,39.9946667 C41.0546667,42.4453333 38,43.8333333 34.888,43.8333333 L34.888,43.8333333 Z M12.746927,30.3811994 C12.6335249,30.8321079 12.6335249,31.2803164 12.8022781,31.7312249 C12.9710313,32.2928356 13.4219398,32.6883931 13.8701483,32.9124973 L30.9142211,40.9572997 C35.5259084,43.1510912 39.7447383,41.1260529 42.1653342,38.5947549 C44.9207363,35.6125484 46.6663194,30.5499526 44.0769704,25.9382652 L37.7777511,14.518399 C37.5536468,14.0674904 37.1027383,13.729984 36.5964787,13.6192819 C35.976817,13.4505287 35.4152063,13.5639309 34.8535957,13.8433862 C34.233934,14.1808926 33.8964276,14.8005543 33.8410765,15.5309181 C33.7857255,15.9818267 33.5589212,16.3193331 33.1107127,16.4880863 C32.6598041,16.6014884 32.2669467,16.4880863 31.9847914,16.2059309 C31.3097786,15.417516 30.1285062,15.2487628 29.2293892,15.7550224 C28.6097274,16.0925288 28.2722211,16.7121905 28.21687,17.4425543 C28.161519,17.8934629 27.9347147,18.2309693 27.4865062,18.3997225 C27.0355976,18.5131246 26.6427402,18.3997225 26.3605849,18.1175671 C25.6855721,17.3291522 24.5042997,17.160399 23.6051827,17.6666586 C23.0989231,17.9488139 22.7614167,18.4550735 22.6480145,19.0720352 C22.5346124,19.5229437 22.197106,19.802399 21.8042486,19.9158012 C21.35334,19.9711522 20.9604826,19.802399 20.7363783,19.4095416 L16.2353931,12.1531542 C15.6157314,11.140635 14.3237569,10.8031286 13.2531866,11.4781414 C12.746927,11.7602967 12.4094206,12.2665563 12.2960185,12.828167 C12.1826164,13.3897776 12.2406674,13.9540883 12.5201227,14.4603479 L22.2524571,30.1543951 C22.4765613,30.6053036 22.4212102,31.0535121 22.1390549,31.4490696 C21.8568996,31.786576 21.2952889,31.9553292 20.8443804,31.6731738 L17.8068229,29.9302908 C16.5701994,29.4820823 14.0969526,29.7061866 12.746927,30.3811994 L12.746927,30.3811994 Z" id="Fill-1"></path>
            <path d="M3.33333333,22 C3.05466667,22 2.77866667,21.8333333 2.612,21.5546667 C2.39066667,21.1666667 2.55733333,20.6666667 2.94533333,20.4426667 L8.612,17.3306667 C9,17.1093333 9.5,17.276 9.724,17.664 C9.94533333,18.052 9.77866667,18.552 9.39066667,18.776 L3.724,21.888 C3.612,21.9453333 3.5,22 3.33333333,22 L3.33333333,22 Z" id="Fill-2"></path>
            <path d="M21.612,11.9453333 C21.3333333,11.9453333 21.0573333,11.7786667 20.8906667,11.5 C20.6693333,11.112 20.836,10.612 21.224,10.388 L26.8906667,7.276 C27.2786667,7.05466667 27.7786667,7.22133333 28.0026667,7.60933333 C28.224,7.99733333 28.0573333,8.49733333 27.6693333,8.72133333 L22.0026667,11.8333333 C21.888,11.888 21.7213333,11.9453333 21.612,11.9453333 L21.612,11.9453333 Z" id="Fill-3"></path>
            <path d="M17.3333333,8 C17.2786667,8 17.1666667,8 17.112,7.94533333 C16.6666667,7.83333333 16.3906667,7.33333333 16.5573333,6.89066667 L18.336,0.669333333 C18.448,0.224 18.948,-0.052 19.3906667,0.114666667 C19.836,0.226666667 20.112,0.726666667 19.9453333,1.16933333 L18.1666667,7.39066667 C18.0546667,7.77866667 17.7213333,8 17.3333333,8 L17.3333333,8 Z" id="Fill-4"></path>
            <path d="M11,8.612 C10.7213333,8.612 10.4453333,8.44533333 10.2786667,8.224 L6.89066667,2.724 C6.66933333,2.336 6.77866667,1.836 7.16933333,1.55733333 C7.55733333,1.27866667 8.05733333,1.44533333 8.336,1.836 L11.724,7.336 C11.9453333,7.724 11.836,8.224 11.4453333,8.50266667 C11.2786667,8.55466667 11.1666667,8.612 11,8.612 L11,8.612 Z" id="Fill-5"></path>
            <path d="M7.33333333,13 L7.112,13 L0.833333333,11.5 C0.388,11.388 0.112,10.9453333 0.221333333,10.5 C0.333333333,10.0546667 0.776,9.77866667 1.22133333,9.888 L7.5,11.388 C7.94533333,11.5 8.22133333,11.9426667 8.112,12.388 C8.05466667,12.7213333 7.72133333,13 7.33333333,13 L7.33333333,13 Z" id="Fill-6"></path>
        </g>
    </g>
</svg>