<?xml version="1.0" encoding="UTF-8"?>
<svg width="45px" height="40px" viewBox="0 0 45 40" version="1.1" xmlns="http://www.w3.org/2000/svg" xmlns:xlink="http://www.w3.org/1999/xlink">
    <title>what-wireframing</title>
    <g id="What-I-do" stroke="none" stroke-width="1" fill="none" fill-rule="evenodd">
        <g id="what-wireframing" fill="#FFFFFF">
            <path d="M39.6708535,39.6708535 L4.61256039,39.6708535 C2.0689211,39.6708535 0,37.6019324 0,35.0577026 L0,4.61315083 C0,2.0689211 2.0689211,0 4.61256039,0 L39.6708535,0 C42.2144928,0 44.2834138,2.0689211 44.2834138,4.61315083 L44.2834138,35.0577026 C44.2834138,37.6019324 42.2144928,39.6708535 39.6708535,39.6708535 L39.6708535,39.6708535 Z M4.61256039,1.84514224 C3.08625872,1.84514224 1.84514224,3.08625872 1.84514224,4.61315083 L1.84514224,35.0577026 C1.84514224,36.5845947 3.08625872,37.8257112 4.61256039,37.8257112 L39.6708535,37.8257112 C41.1971551,37.8257112 42.4382716,36.5845947 42.4382716,35.0577026 L42.4382716,4.61315083 C42.4382716,3.08625872 41.1971551,1.84514224 39.6708535,1.84514224 L4.61256039,1.84514224 Z" id="Fill-1"></path>
            <path d="M38.21562,9.25254965 L6.84879227,9.25254965 C6.33864734,9.25254965 5.92592593,8.83982823 5.92592593,8.33027375 C5.92592593,7.82012882 6.33864734,7.40740741 6.84879227,7.40740741 L38.21562,7.40740741 C38.7257649,7.40740741 39.1384863,7.82012882 39.1384863,8.33027375 C39.1384863,8.83982823 38.7257649,9.25254965 38.21562,9.25254965 L38.21562,9.25254965 Z" id="Fill-2"></path>
            <path d="M32.3305421,13.6969941 L12.033387,13.6969941 C11.5238325,13.6969941 11.1111111,13.2842727 11.1111111,12.7741278 C11.1111111,12.2645733 11.5238325,11.8518519 12.033387,11.8518519 L32.3305421,11.8518519 C32.8400966,11.8518519 33.252818,12.2645733 33.252818,12.7741278 C33.252818,13.2842727 32.8400966,13.6969941 32.3305421,13.6969941 L32.3305421,13.6969941 Z" id="Fill-3"></path>
            <path d="M14.2293612,31.8115942 L6.84879227,31.8115942 C6.33864734,31.8115942 5.92592593,31.3988728 5.92592593,30.8887279 L5.92592593,21.6630166 C5.92592593,21.1534622 6.33864734,20.7407407 6.84879227,20.7407407 L14.2293612,20.7407407 C14.7389157,20.7407407 15.1516371,21.1534622 15.1516371,21.6630166 L15.1516371,30.8887279 C15.1516371,31.3988728 14.7389157,31.8115942 14.2293612,31.8115942 L14.2293612,31.8115942 Z M7.77106817,29.966452 L13.3064949,29.966452 L13.3064949,22.585883 L7.77106817,22.585883 L7.77106817,29.966452 Z" id="Fill-4"></path>
            <path d="M26.0806227,31.8115942 L18.7000537,31.8115942 C18.1904992,31.8115942 17.7777778,31.3988728 17.7777778,30.8887279 L17.7777778,21.6630166 C17.7777778,21.1534622 18.1904992,20.7407407 18.7000537,20.7407407 L26.0806227,20.7407407 C26.5901771,20.7407407 27.0028986,21.1534622 27.0028986,21.6630166 L27.0028986,30.8887279 C27.0028986,31.3988728 26.5901771,31.8115942 26.0806227,31.8115942 L26.0806227,31.8115942 Z M19.6223296,29.966452 L25.1583468,29.966452 L25.1583468,22.585883 L19.6223296,22.585883 L19.6223296,29.966452 Z" id="Fill-5"></path>
            <path d="M37.9324745,31.8115942 L30.5519055,31.8115942 C30.042351,31.8115942 29.6296296,31.3988728 29.6296296,30.8887279 L29.6296296,21.6630166 C29.6296296,21.1534622 30.042351,20.7407407 30.5519055,20.7407407 L37.9324745,20.7407407 C38.4426194,20.7407407 38.8553408,21.1534622 38.8553408,21.6630166 L38.8553408,30.8887279 C38.8553408,31.3988728 38.4426194,31.8115942 37.9324745,31.8115942 L37.9324745,31.8115942 Z M31.4747719,29.966452 L37.0101986,29.966452 L37.0101986,22.585883 L31.4747719,22.585883 L31.4747719,29.966452 Z" id="Fill-6"></path>
        </g>
    </g>
</svg>