<svg xmlns="http://www.w3.org/2000/svg" width="690" height="272.275" viewBox="0 0 690 272.275"><defs><style>.a,.b{fill:#003082;}.a{opacity:0.1;}</style></defs><title>generiek</title><polygon class="a" points="258.628 157.969 258.857 164.998 259.239 167.568 260.691 172.935 262.296 175.656 263.825 178.377 267.264 182.761 253.966 182.837 253.049 180.796 249.686 170.441 247.011 159.027 245.941 151.393 245.635 145.648 245.483 143.305 245.635 142.247 248.387 146.48 250.527 150.032 252.514 152.527 254.654 154.643 257.405 156.986 258.628 157.969"/><polygon class="a" points="245.177 143.396 245.253 145.134 245.1 148.913 244.642 154.734 242.884 163.502 239.445 173.328 236.617 179.677 235.165 182.247 218.657 182.701 219.192 180.736 221.284 178.165 222.975 176.503 225.994 174.462 231.114 170.305 234.401 166.601 236.846 162.368 239.751 155.187 245.177 143.396"/><polygon class="a" points="276.738 157.816 276.509 164.845 276.127 167.415 274.674 172.782 273.069 175.503 271.541 178.224 268.102 182.608 281.4 182.684 282.317 180.643 285.68 170.288 288.355 158.874 289.425 151.24 289.73 145.495 289.883 143.152 289.73 142.094 286.979 146.327 284.839 149.879 282.852 152.374 280.712 154.49 277.961 156.833 276.738 157.816"/><polygon class="a" points="290.189 143.243 290.113 144.981 290.265 148.761 290.724 154.581 292.482 163.349 295.921 173.175 298.749 179.524 300.201 182.094 316.709 182.548 316.174 180.583 314.082 178.012 312.391 176.35 309.372 174.309 304.251 170.152 300.965 166.448 298.519 162.215 295.615 155.034 290.189 143.243"/><path class="a" d="M403.806,98.883a5.025,5.025,0,0,1-4.838,5.051H381.41a7.667,7.667,0,0,1-7.482-7.695,7.58,7.58,0,0,1,7.482-7.6,7.435,7.435,0,0,1,1.723.147,5.43,5.43,0,0,1,10.693,1.227,3.95,3.95,0,0,1,2.152-.636,4.01,4.01,0,0,1,4.014,4.011,4.956,4.956,0,0,1-.041.645A4.964,4.964,0,0,1,403.806,98.883Z"/><path class="a" d="M163.547,151.215a5.025,5.025,0,0,1-4.838,5.051H141.151a7.667,7.667,0,0,1-7.482-7.695,7.58,7.58,0,0,1,7.482-7.6,7.435,7.435,0,0,1,1.723.147,5.43,5.43,0,0,1,10.693,1.227,3.95,3.95,0,0,1,2.152-.636,4.01,4.01,0,0,1,4.014,4.011,4.956,4.956,0,0,1-.041.645A4.964,4.964,0,0,1,163.547,151.215Z"/><path class="a" d="M556.687,132.735a5.025,5.025,0,0,0,4.838,5.051h17.559a7.667,7.667,0,0,0,7.482-7.695,7.58,7.58,0,0,0-7.482-7.6,7.435,7.435,0,0,0-1.723.147,5.43,5.43,0,0,0-10.693,1.227,3.95,3.95,0,0,0-2.152-.636,4.01,4.01,0,0,0-4.014,4.011,4.956,4.956,0,0,0,.041.645A4.964,4.964,0,0,0,556.687,132.735Z"/><path class="a" d="M337.254,75.04c0,3.918-3.183,7.656-7.1,7.656h-38.7c-3.344,0-6.052-3.263-6.052-6.607a6.292,6.292,0,0,1,6.052-6.329,5.842,5.842,0,0,1,2.322.327,7.161,7.161,0,0,1,9.96-5.385,5.408,5.408,0,0,1,4.779-2.9,5.322,5.322,0,0,1,3.353,1.166,9.113,9.113,0,0,1,17.769,2.853,8.512,8.512,0,0,1-.143,1.595c.215-.018.439.25.663.25A7.347,7.347,0,0,1,337.254,75.04Z"/><path class="a" d="M545.933,226.594h.313a6.372,6.372,0,0,1,6.364,6.364V237.9h34.114l-4.572-26.122L544.5,221.357v5.407A6.34,6.34,0,0,1,545.933,226.594Z"/><path class="a" d="M525.043,235.2v-8.891L493.4,234.36V237.9H525.44A9.438,9.438,0,0,1,525.043,235.2Z"/><polygon class="a" points="493.401 234.36 525.043 226.307 493.401 234.36 493.401 234.36"/><path class="a" d="M535.018,195.563a8.462,8.462,0,0,1,7.323,4.216l4.69-2.2L544.8,178.208a1.637,1.637,0,0,0-3.271,0l-1.024,8.88L538.89,173.1a1.981,1.981,0,0,0-3.958,0l-2.625,22.769a8.463,8.463,0,0,1,2.216-.3Z"/><path class="a" d="M526.044,207.436v-3.395a8.432,8.432,0,0,1,1.532-4.852l-1.414-12.268a1.981,1.981,0,0,0-3.958,0l-2.721,23.6Z"/><path class="a" d="M575.162,184.359l-1.273-11.039a1.981,1.981,0,0,0-3.958,0l-1.645,14.269Z"/><path class="a" d="M565.046,189.112v-2.679a5.459,5.459,0,0,0-5.443-5.443h-.965a5.459,5.459,0,0,0-5.443,5.443v8.247Z"/><path class="b" d="M602.288,257.422l-2.371,1.218L598.6,254.1a.844.844,0,0,0-.816-.611h0a.842.842,0,0,0-.812.613l-1.421,4.9-1.922-1.748a.85.85,0,0,0-1.4.836l1.309,5.234,1.455-.363-.788-3.151,1.1,1a.845.845,0,0,0,.8.19l.475-.181,1.2-4.153.911,3.141a.848.848,0,0,0,.479.543l.41.139,1.8-.923-.957,2.265,1.383.584,1.653-3.917a.85.85,0,0,0-1.173-1.083Z"/><path class="b" d="M143.745,247.409a.846.846,0,0,0-.9-.074l-2.156,1.111L139.25,245.4a.886.886,0,0,0-1.539,0l-1.515,3.24-2.068-2.016a.85.85,0,0,0-1.423.782l1.123,5.437,1.469-.3-.694-3.358,1.2,1.172a.858.858,0,0,0,.746.227l.453-.126,1.481-3.168,1.142,2.411a.857.857,0,0,0,.493.437l.38.1,1.862-.96-.486,2.667,1.476.27.722-3.964A.843.843,0,0,0,143.745,247.409Z"/><path class="b" d="M289.589,235.179a.851.851,0,0,0-.944.029l-1.969,1.4-1.275-4.392a.85.85,0,0,0-1.633,0l-1.421,4.9-1.928-1.752a.849.849,0,0,0-1.4.817l1.117,4.846,1.462-.337-.65-2.82,1.162,1.057a.855.855,0,0,0,.8.189l.469-.182,1.2-4.151.907,3.124a.849.849,0,0,0,.537.564l.457.114,1.754-1.252-.462,2.782,1.479.246.72-4.328A.847.847,0,0,0,289.589,235.179Z"/><path class="b" d="M509.315,185.661a8.055,8.055,0,0,0-3.472-6.905l-.528-.33-.529.33a8.058,8.058,0,0,0-3.471,6.905V196.6h8Zm-2,8.936h-4v-8.936a6.413,6.413,0,0,1,2-4.818,6.412,6.412,0,0,1,2,4.818Z"/><path class="b" d="M509.315,150.676c0-3.579-1.295-6.828-3.38-8.477l-.62-.491-.621.491c-2.084,1.65-3.379,4.9-3.379,8.477v24.307h8Zm-2,22.307h-4V150.676a9.873,9.873,0,0,1,2-6.313,9.872,9.872,0,0,1,2,6.313Z"/><path class="b" d="M492.133,36.178c0-3.216-1.081-6.142-2.822-7.636l-.651-.559-.651.559c-1.741,1.494-2.822,4.42-2.822,7.636v34.9h6.947Zm-2,32.9h-2.947v-32.9a9.543,9.543,0,0,1,1.474-5.4,9.543,9.543,0,0,1,1.474,5.4Z"/><path class="b" d="M502.186,36.178c0-3.216-1.081-6.142-2.822-7.636l-.651-.559-.651.559c-1.741,1.494-2.822,4.42-2.822,7.636v34.9h6.947Zm-2,32.9h-2.947v-32.9a9.543,9.543,0,0,1,1.474-5.4,9.543,9.543,0,0,1,1.474,5.4Z"/><path class="b" d="M654.484,220.053h6.506a1.814,1.814,0,0,0,1.812-1.812v-3.5a1.814,1.814,0,0,0-1.812-1.812h-6.506a1.815,1.815,0,0,0-1.812,1.813v3.5A1.815,1.815,0,0,0,654.484,220.053Zm-.312-5.317a.313.313,0,0,1,.313-.312h6.506a.313.313,0,0,1,.312.313v3.5a.313.313,0,0,1-.312.313h-6.506a.313.313,0,0,1-.312-.312Z"/><path class="b" d="M666.629,217.875h1.558a1.368,1.368,0,0,0,1.367-1.366V214.29a1.369,1.369,0,0,0-1.367-1.367h-1.558a1.369,1.369,0,0,0-1.367,1.367v2.219A1.368,1.368,0,0,0,666.629,217.875Zm.133-3.452h1.292v1.952h-1.292Z"/><path class="b" d="M642.926,220.053h6.506a1.815,1.815,0,0,0,1.813-1.812v-3.5a1.815,1.815,0,0,0-1.812-1.812h-6.506a1.815,1.815,0,0,0-1.812,1.813v3.5A1.815,1.815,0,0,0,642.926,220.053Zm-.312-5.317a.313.313,0,0,1,.313-.312h6.506a.313.313,0,0,1,.313.313v3.5a.313.313,0,0,1-.312.313h-6.506a.313.313,0,0,1-.312-.312Z"/><path class="b" d="M631.37,220.053h6.506a1.814,1.814,0,0,0,1.812-1.812v-3.5a1.814,1.814,0,0,0-1.812-1.812H631.37a1.815,1.815,0,0,0-1.812,1.813v3.5A1.815,1.815,0,0,0,631.37,220.053Zm-.312-5.317a.313.313,0,0,1,.313-.312h6.506a.313.313,0,0,1,.312.313v3.5a.313.313,0,0,1-.312.313H631.37a.313.313,0,0,1-.312-.312Z"/><path class="b" d="M572.755,223.1l3.194,3.194h-4.312a1.135,1.135,0,0,1-.479-.16l-2.316-2.4a2.23,2.23,0,0,0-1.6-.639h-4.711l-3.992,3.992,3.992,3.992h2.236l-3.194-3.194h4.312a1.134,1.134,0,0,1,.479.16l2.316,2.4a2.229,2.229,0,0,0,1.6.639h4.711l3.992-3.992-3.992-3.992Zm1.6,6.388H570.28a1.135,1.135,0,0,1-.479-.16l-2.316-2.4a2.23,2.23,0,0,0-1.6-.639h-4.312l1.6-1.6h4.072a1.135,1.135,0,0,1,.479.16l2.316,2.4a2.23,2.23,0,0,0,1.6.639h4.312Z"/><path class="b" d="M669.223,230.325A3.242,3.242,0,0,0,671.439,228l4.539,1.289a1.688,1.688,0,0,0,.452.063,1.64,1.64,0,0,0,1.532-1.061,1.662,1.662,0,0,0-.046-1.278l-.854-1.921,1.06-1.795c.026-.045.052-.09.076-.137l.22-.5.021-.057.087-.248a.477.477,0,0,0,.028-.139,4,4,0,0,0-.311-2.88c-.293-.58-2.871-5.681-3.187-6.231l-.087-.16c-1.773-3.31-3.777-4.987-5.959-4.987H629.057l25.119-46.6a7.849,7.849,0,0,0-1.164-9.13,6.743,6.743,0,0,0-7.948-1.567L542.627,198.415a9.461,9.461,0,0,0-7.61-3.852h-.5a9.489,9.489,0,0,0-9.479,9.478v2.57l-9.607,4.478V128.725h-2v5.75h-1.75V69.225h-2V75.1h-2V16.35h-2v5.758L495.606,7.75h1.143v-2h-2V0h-2V5.75h-2v2h1.022L481.725,22.225h-.039V16.35h-2V75.1h-2V69.225h-2v41.5H425.9l-9.233,14.244h-6.117v3.516A5.457,5.457,0,0,0,415,133.844v29.572a23.114,23.114,0,0,1-11.021-18.806h1.181v-7.5l-13.6-10.362-13.6,10.362v7.5h1.181a23.264,23.264,0,0,1-11.1,18.841v-3.008l-14.014-3.837a9.3,9.3,0,0,0-18.409,0L321.6,160.442v9.367h.019v3.708l-.875-.288c-12.531-4.084-20.1-6.55-29.161-31.854l-.062-.151a1.78,1.78,0,0,0-.463-.588V118.769a1,1,0,0,0-1.171-.985L274.234,120.5a1,1,0,0,0-.013,1.968,41.4,41.4,0,0,1,14.835,5.639v12.276a1.813,1.813,0,0,0-.728.7l-4,6.958c-4.91,7.244-10.64,11.067-16.578,11.067h-.139l-.01,1-.1-1h-.292c-5.941,0-11.673-3.825-16.576-11.059l-4-6.969a1.811,1.811,0,0,0-.526-.562V125.359a1,1,0,0,0-1.24-.971l-15.652,3.872a1,1,0,0,0,.24,1.971c9.772,0,13.822,4.059,14.652,5.031v5.208a1.772,1.772,0,0,0-.661.746l-.066.16c-9.066,25.3-16.63,27.77-29.161,31.854-.984.321-2,.651-3.046,1a12,12,0,0,0-8.189,11.385v26.242h-6.666l-3.38-26.939a4.894,4.894,0,0,0-9.713,0l-3.38,26.938H129.206a14.509,14.509,0,0,0,1.542-4.293,15.613,15.613,0,0,0,.141-4.5l-6.165-27.457c-.587-2.612-2.4-4.3-4.606-4.3h0c-2.215,0-4.023,1.694-4.607,4.313l-5.824,26.153a7.839,7.839,0,0,0-4.861-.014,7.985,7.985,0,0,0-4.833,4.433,9.451,9.451,0,0,0-.616,5.662H96l-96,2H99.969a9.5,9.5,0,0,0,4,4.6,8.236,8.236,0,0,0,4.111,1.128,7.705,7.705,0,0,0,4.408-1.38l6.55,6.316.023-.024v12.839h2v-20.07a9.062,9.062,0,0,0,6.775-3.413h51.751l-1,7.982a8.44,8.44,0,0,0-5.833-2.35h-.994a8.513,8.513,0,0,0-8.5,8.5v14.993a8.507,8.507,0,0,0,8,8.478v11.226h2V251.465a8.441,8.441,0,0,0,4.827-1.871,11.193,11.193,0,0,0,9.077,4.637h.251v18.044h2V254.214a11.2,11.2,0,0,0,10.473-8.513,10.944,10.944,0,0,0,.166-4.044l-3.487-27.8H321.618v41.149H493.4V239.9h32.9a9.476,9.476,0,0,0,7.469,4.729v18.854h2V244.628a9.416,9.416,0,0,0,3.8-1.12v9.164a6.369,6.369,0,0,0,5.521,6.3v11.592h2V258.972a6.369,6.369,0,0,0,5.521-6.3V239.9h59.482l.112-.672,3.719-6.9H690v-2ZM505.686,24.225v50.75h-24V24.225Zm-12-15.728,9.638,13.728H484.16ZM109.869,217.308a6.013,6.013,0,0,1-4.9-.578,7.4,7.4,0,0,1-2.782-2.87,8.079,8.079,0,0,1-.608-1.4c-.065-.2-.118-.4-.167-.6a7.5,7.5,0,0,1,.4-4.845,6.013,6.013,0,0,1,3.625-3.348,5.76,5.76,0,0,1,1.781-.282,6.251,6.251,0,0,1,3.119.86,7.575,7.575,0,0,1,3.39,4.269,7.838,7.838,0,0,1,.338,3.346,7.213,7.213,0,0,1-.533,2c-.014.033-.025.068-.039.1A6.013,6.013,0,0,1,109.869,217.308Zm4.119-.432a8.314,8.314,0,0,0,.739-1.01,8.448,8.448,0,0,0,4.339,1.4v4.505Zm6.97-1.6h-1.625a6.445,6.445,0,0,1-3.718-1.255c.019-.054.035-.109.053-.164a9.288,9.288,0,0,0,.4-2,9.85,9.85,0,0,0-.441-3.963,9.588,9.588,0,0,0-4.092-5.256l5.919-26.579c.372-1.669,1.415-2.747,2.657-2.748h0c1.239,0,2.281,1.074,2.655,2.738l6.132,27.272a13.616,13.616,0,0,1-.12,3.864,11.965,11.965,0,0,1-1.954,4.671,9.2,9.2,0,0,1-1.918,2A6.539,6.539,0,0,1,120.958,215.278Zm51.8,34.213h-.994a6.511,6.511,0,0,1-6.5-6.5V227.994a6.51,6.51,0,0,1,6.5-6.5h.994a6.48,6.48,0,0,1,5.493,3.06l-2.146,17.1a10.968,10.968,0,0,0,.166,4.045,11.291,11.291,0,0,0,.781,2.152A6.461,6.461,0,0,1,172.756,249.491Zm25.312-7.587a9,9,0,0,1-.123,3.314,9.213,9.213,0,0,1-8.952,7.013h-1.831a9.214,9.214,0,0,1-8.952-7.012,9.022,9.022,0,0,1-.123-3.315l3.519-28.045.251-2,3.349-26.69a2.895,2.895,0,0,1,5.744,0l3.348,26.69.251,2ZM667.7,228.314a.931.931,0,0,0-.109-.052l-1.026-.59a4.04,4.04,0,0,0-2.007-.535h-5.139a4.03,4.03,0,0,0-2.006.534l-1.063.61c-.031.013-.063.027-.094.043a1.24,1.24,0,0,1-1.822-1.1,1.214,1.214,0,0,1,.229-.683l.438-.4a1.23,1.23,0,0,1,.555-.156c.026,0,.052,0,.078,0h12.511c.025,0,.052,0,.078,0a1.209,1.209,0,0,1,.591.186l.411.4a1.2,1.2,0,0,1,.22.661A1.244,1.244,0,0,1,667.7,228.314Zm-.31,2.011h-10.8a3.268,3.268,0,0,0,.448-.154,1,1,0,0,0,.188-.083l1.188-.682a2.029,2.029,0,0,1,1.01-.269h5.139a2.026,2.026,0,0,1,1.011.27l1.152.662a1.021,1.021,0,0,0,.17.077A3.313,3.313,0,0,0,667.389,230.325Zm1.621-20.361c.953,0,2.455.683,4.2,3.932l.114.21c.22.383,2,3.881,3.14,6.143a2.133,2.133,0,0,1,.231.963,2.348,2.348,0,0,1-.088.57l-.042.139a2.073,2.073,0,0,1-.163.365l-1.092,1.85a1.885,1.885,0,0,0-.1,1.715l.583,1.31-3.942-1.119a1.109,1.109,0,0,1-.471-.271l-.519-.5a3.289,3.289,0,0,0-.73-.7l-.792-.763H654.685l-.807.745a3.284,3.284,0,0,0-.7.649l-.5.461H619.519l3.021-5.6h3.778a1.815,1.815,0,0,0,1.813-1.812v-3.5a1.812,1.812,0,0,0-1.75-1.806l1.6-2.966Zm-43.435,4.459h.743a.313.313,0,0,1,.313.313v3.5a.313.313,0,0,1-.312.313h-2.969Zm-100.531-5.605v11.469l-9.607,3.44-2.788,1L493.4,231.618v-8.052l3.493-1.628,2-.932,14.542-6.778,2-.932Zm0,15.426-17.237,4.387,17.237-6.134Zm.4,13.652H493.4V234.36l31.643-8.053V235.2A9.438,9.438,0,0,0,525.44,237.9ZM493.4,181.123c.094-.1.185-.194.285-.28a6.413,6.413,0,0,1,2,4.818V194.6H493.4Zm0,22.408c.1-.065.185-.137.285-.2A6.564,6.564,0,0,1,496.894,209v10.732L493.4,221.36Zm20.035,8.49L498.894,218.8V209a8.556,8.556,0,0,0-4.762-7.7l-.446-.223-.285.142V196.6h4.285V185.661a8.058,8.058,0,0,0-3.471-6.905l-.529-.33-.285.178v-3.622h4.785V149.916c0-3.7-1.5-7.058-3.927-8.752l-.573-.4-.285.2v-4.487h20.035ZM417,133.939h74.4v1.813H417Zm76.4,9.635c.095-.1.185-.212.285-.305a9.252,9.252,0,0,1,2.5,6.647v23.066H493.4ZM477.686,77.1h32v57.25H493.4v-.507a5.457,5.457,0,0,0,4.38-4.518h5.97V91.758c0-3.675-1.29-7.012-3.367-8.708l-.633-.517-.633.517c-2.077,1.7-3.367,5.032-3.367,8.708v33.214h-4.014l-.115-.177V91.758c0-3.675-1.29-7.012-3.367-8.708l-.633-.517-.632.516c-2.078,1.7-3.368,5.032-3.368,8.708v20.7l-1.119-1.726h-4.816Zm20.064,47.873V91.758a10.462,10.462,0,0,1,2-6.531,10.462,10.462,0,0,1,2,6.531v35.567h-3.9v-2.353Zm-8.129-3.262-4-6.17V91.758a10.459,10.459,0,0,1,2-6.531,10.461,10.461,0,0,1,2,6.531Zm-62.639-8.982h54.432l7.939,12.244H419.045Zm-14.437,15.76v-1.516h2.82l-.028.043h77.724l-.028-.043h2.718v2.311a3.451,3.451,0,0,1-3.35,2.656H416A3.455,3.455,0,0,1,412.545,128.488Zm-20.991.778,11.6,8.838v3.2h-23.2v-3.2Zm-10.4,14.343v-1h-1.2v-.3h23.2v.3h-1.2v1a25.189,25.189,0,0,0,12.318,21.7H368.825A25.315,25.315,0,0,0,381.157,143.609Zm-84.529,16.529c4.2,10.225,9.46,13.42,12.943,15.534a16.221,16.221,0,0,1,5.887,6.185H301.051c-1.346-2.105-9.5-15.694-10.055-36.323.434,1.126.865,2.208,1.294,3.239Zm-6.6-7.153a75.244,75.244,0,0,0,9.265,28.872h-16.5A116.022,116.022,0,0,0,290.028,152.985Zm-53.864,28.872a75.465,75.465,0,0,0,9.173-28.707,116.213,116.213,0,0,0,7.174,28.707Zm8.209-36.331c-.511,20.225-8.346,33.753-9.961,36.331H220a16.114,16.114,0,0,1,5.793-6.03c3.482-2.114,8.746-5.31,12.95-15.554Zm-38.7,38.331H321.618v1.064l-.822,1.3a3.97,3.97,0,0,1-3.214,1.883,3.652,3.652,0,0,1-3.014-1.883l-.845-1.333-.845,1.333a3.354,3.354,0,0,1-6.028,0l-.845-1.333-.845,1.333a3.354,3.354,0,0,1-6.028,0l-.845-1.333-.845,1.333a3.354,3.354,0,0,1-6.028,0l-.845-1.333-.845,1.333a3.354,3.354,0,0,1-6.028,0l-.845-1.333-.845,1.333a3.354,3.354,0,0,1-6.028,0l-.845-1.333-.845,1.333a3.354,3.354,0,0,1-6.028,0l-.845-1.333-.845,1.333a3.354,3.354,0,0,1-6.028,0l-.845-1.333-.845,1.333a3.354,3.354,0,0,1-6.028,0l-.845-1.333-.845,1.333a3.354,3.354,0,0,1-6.028,0l-.845-1.333-.845,1.333a3.354,3.354,0,0,1-6.028,0l-.845-1.333-.845,1.333a3.354,3.354,0,0,1-6.028,0l-.845-1.333-.845,1.333a3.354,3.354,0,0,1-6.028,0l-.845-1.333-.845,1.333a3.354,3.354,0,0,1-6.028,0l-.845-1.333-.845,1.333a3.652,3.652,0,0,1-3.014,1.883c-1.751,0-3.227-1.532-3.74-3.637C205.752,184.265,205.7,184.067,205.669,183.857Zm117.949,30v-18.75h42.26c0,4.684.006,9.608.011,14.533,0,3.246.007,6.49.011,9.667H323.618Zm-.019-51.892,13.86-3.795.061-.693a7.311,7.311,0,0,1,14.6,0l.06.693,13.861,3.795v2.93a19.088,19.088,0,0,0-.124,2.912H323.6Zm.019,7.842H365.9c-.01,2.375-.017,5.558-.021,9.31,0,4.368,0,9.5,0,14.99h-42.26v-24.3Zm-3.5,5.321c.484.158,1,.329,1.5.493v6.234h-4.445a18.378,18.378,0,0,0-6.824-7.466c-3.332-2.024-7.83-4.767-11.7-13.362C304.809,170.13,311.285,172.251,320.123,175.131Zm-40.756-53.49,9.69-1.684v5.786A42.192,42.192,0,0,0,279.367,121.641Zm6.62,27.528,3.421-5.945c-.318,6.219-1.765,23.243-8.238,38.634H269.814c2.657-2.675,7.763-9.683,7.944-24.057A31.838,31.838,0,0,0,285.986,149.169ZM267.3,161.113h.157l.115,0h.175a17.074,17.074,0,0,0,8.5-2.36c-.476,16.066-7.5,22.179-8.656,23.076-1.582-1.313-7.991-7.565-8.463-22.859A17.138,17.138,0,0,0,267.3,161.113Zm-18.384-12.037.058.093a31.3,31.3,0,0,0,8.638,8.911c.205,14.02,5.1,21,7.792,23.777H254.134c-6.173-14.775-7.745-31.409-8.134-37.852Zm-13.441-20.3,8.631-2.135V132.5A19.419,19.419,0,0,0,235.473,128.772Zm-23.667,47.357c1.042-.35,2.05-.679,3.029-1,9.483-3.091,16.248-5.305,22.818-16.2l-.3.794c-4.01,9.771-8.821,12.691-12.334,14.823a18.266,18.266,0,0,0-6.739,7.313H205.715A10,10,0,0,1,211.806,176.129Zm45.38,35.73c.32-8.752,4.814-15.714,10.292-15.714s9.973,6.962,10.293,15.714Zm22.57,0c-.345-9.853-5.712-17.714-12.278-17.714s-11.932,7.861-12.277,17.714H204.98V187.5a5.585,5.585,0,0,0,4.56,2.607,5.322,5.322,0,0,0,3.859-1.728,5.173,5.173,0,0,0,7.717,0,5.173,5.173,0,0,0,7.717,0,5.173,5.173,0,0,0,7.717,0,5.173,5.173,0,0,0,7.717,0,5.173,5.173,0,0,0,7.717,0,5.173,5.173,0,0,0,7.717,0,5.173,5.173,0,0,0,7.717,0,5.173,5.173,0,0,0,7.717,0,5.173,5.173,0,0,0,7.717,0,5.173,5.173,0,0,0,7.717,0,5.173,5.173,0,0,0,7.717,0,5.173,5.173,0,0,0,7.717,0,5.173,5.173,0,0,0,7.717,0,5.173,5.173,0,0,0,7.717,0c.057.06.118.112.177.169v23.316Zm43.861,8.45H365.9c.02,15.405.046,28.984.053,32.7H323.618Zm44.4,32.7v-83.2h.019v-3.5H415v86.7Zm101.9-24.77-.123.7a2.4,2.4,0,0,1-.141.465,2.2,2.2,0,0,1-1.207,1.265,2.72,2.72,0,0,1-.793.184,2.388,2.388,0,0,1-1.386-.3,2.451,2.451,0,0,1-.7-.579,1,1,0,0,0-1.555,0,2.22,2.22,0,0,1-.74.579,2.549,2.549,0,0,1-2.26,0,2.216,2.216,0,0,1-.739-.579,1.035,1.035,0,0,0-1.555,0,2.218,2.218,0,0,1-.74.579,2.549,2.549,0,0,1-2.26,0,2.252,2.252,0,0,1-.518-.365,2.134,2.134,0,0,1-.222-.214,1,1,0,0,0-1.556,0,2.112,2.112,0,0,1-.223.215,2.239,2.239,0,0,1-.515.363,2.55,2.55,0,0,1-2.259,0,2.217,2.217,0,0,1-.74-.579,1.035,1.035,0,0,0-1.555,0,2.22,2.22,0,0,1-.74.579,2.549,2.549,0,0,1-2.26,0,2.216,2.216,0,0,1-.739-.579,1.035,1.035,0,0,0-1.555,0,2.477,2.477,0,0,1-.69.579,2.347,2.347,0,0,1-1.4.3,2.787,2.787,0,0,1-.79-.186,2.2,2.2,0,0,1-1.21-1.273,2.41,2.41,0,0,1-.139-.455l-.124-.7Zm-30.583-2,1.327-1.719H467.74l1.327,1.719Zm1.418,6.619a4.339,4.339,0,0,0,2.866-.87,4.525,4.525,0,0,0,5.292,0,4.538,4.538,0,0,0,4.292.538v20.483h-12.45Zm14.45,20.151V232.524a4.536,4.536,0,0,0,4.295-.537,4.525,4.525,0,0,0,5.292,0,4.329,4.329,0,0,0,2.637.885c.075,0,.152-.018.228-.022v20.158Zm36.2,0H469.65v-20.7a4.315,4.315,0,0,0,2.111-3.021l.327-1.873V227.4a.99.99,0,0,0-.017-.374c-.006-.028-.012-.056-.02-.083a.986.986,0,0,0-.156-.317l-2.872-3.719a1,1,0,0,0-.791-.389H440.167a1,1,0,0,0-.792.389l-2.871,3.719a.987.987,0,0,0-.156.317c-.008.027-.014.055-.02.083a1,1,0,0,0-.017.374v.009l.33,1.878a4.315,4.315,0,0,0,2.108,3.014v20.7H417.157V164.563l-.159-.072V136.752h74.4V253.009Zm43.616-10.333h-.5a7.5,7.5,0,0,1-7.479-7.478V204.041a7.486,7.486,0,0,1,7.479-7.478h.5a7.5,7.5,0,0,1,7.479,7.478V227.61a6.36,6.36,0,0,0-2.927,5.348v8.16A7.432,7.432,0,0,1,535.017,242.676Zm17.594-4.78v-4.937a6.372,6.372,0,0,0-6.364-6.364h-.313a6.34,6.34,0,0,0-1.437.17v-5.407l37.657-9.583,4.572,26.122Zm29.945-28.289L544.5,219.293v-3.718L611.311,191.8l-26.1,16.164Zm-31.945,43.064a4.369,4.369,0,0,1-4.364,4.363h-.313a4.369,4.369,0,0,1-4.364-4.363V232.958a4.432,4.432,0,0,1,4.364-4.364h.313a4.369,4.369,0,0,1,4.364,4.364v19.713ZM588.756,237.9l-4.7-26.863,1.727-1.069,3.229-2,29.446-18.235-3.05,18.236-.335,2-2.625,15.694-.335,2-.446,2.668-.334,2-.932,5.57Zm24.472-4.781.132-.789.334-2,.446-2.668.334-2,2.625-15.694.334-2,3.723-22.261-.643.4L544.5,213.322v-9.281a9.408,9.408,0,0,0-.847-3.9L645.91,152.481a4.735,4.735,0,0,1,5.647,1.128,5.791,5.791,0,0,1,.859,6.808l-25.631,47.546-1.078,2-1.6,2.959-.809,1.5-2.226,4.13-.809,1.5-3.021,5.6-1.078,2-1.438,2.668-1.078,2Zm5.213-5.457h34.036a3.235,3.235,0,0,0,2.277,2.668H617Z"/><path class="b" d="M460.872,190.918h1.558v20.51h14.534v-20.51h1.557v-5.155H460.872Zm3.558,0H468.7v8.134h-4.267Zm0,10.134H468.7v8.376h-4.267Zm6.267,8.376v-8.376h4.268v8.376Zm4.268-10.376H470.7v-8.134h4.268Zm-12.092-11.289H476.52v1.155H462.872Z"/><path class="b" d="M429.877,190.918h1.558v20.51h14.534v-20.51h1.557v-5.155H429.877Zm3.558,0H437.7v8.134h-4.267Zm0,10.134H437.7v8.376h-4.267Zm6.267,8.376v-8.376h4.268v8.376Zm4.268-10.376H439.7v-8.134h4.268Zm-12.092-11.289h13.648v1.155H431.877Z"/><path class="b" d="M460.872,151.024h1.558v20.51h14.534v-20.51h1.557v-5.155H460.872Zm3.558,0H468.7v8.133h-4.267Zm0,10.133H468.7v8.377h-4.267Zm6.267,8.377v-8.377h4.268v8.377Zm4.268-10.377H470.7v-8.133h4.268Zm-12.092-11.288H476.52v1.155H462.872Z"/><path class="b" d="M429.877,151.024h1.558v20.51h14.534v-20.51h1.557v-5.155H429.877Zm3.558,0H437.7v8.133h-4.267Zm0,10.133H437.7v8.377h-4.267Zm6.267,8.377v-8.377h4.268v8.377Zm4.268-10.377H439.7v-8.133h4.268Zm-12.092-11.288h13.648v1.155H431.877Z"/><rect class="b" x="368.157" y="168.909" width="46.8" height="1"/><path class="b" d="M376.557,176.009v1.2h-2.4v15.6h8.4v-15.6h-2.4v-1.2Zm4,3.2v11.6h-4.4v-11.6Z"/><path class="b" d="M389.757,176.009v1.2h-2.4v15.6h8.4v-15.6h-2.4v-1.2Zm4,3.2v11.6h-4.4v-11.6Z"/><path class="b" d="M402.957,176.009v1.2h-2.4v15.6h8.4v-15.6h-2.4v-1.2Zm4,3.2v11.6h-4.4v-11.6Z"/><path class="b" d="M374.157,215.609h8.4v-15.6h-8.4Zm2-13.6h4.4v11.6h-4.4Z"/><rect class="b" x="376.557" y="198.809" width="3.6" height="1.2"/><path class="b" d="M387.357,215.609h8.4v-15.6h-8.4Zm2-13.6h4.4v11.6h-4.4Z"/><rect class="b" x="389.757" y="198.809" width="3.6" height="1.2"/><path class="b" d="M400.557,215.609h8.4v-15.6h-8.4Zm2-13.6h4.4v11.6h-4.4Z"/><rect class="b" x="402.957" y="198.809" width="3.6" height="1.2"/><path class="b" d="M374.157,236.009h21.6v-9.6h-21.6Zm2-7.6h17.6v5.6h-17.6Z"/><path class="b" d="M408.957,226.409c0-2.651-1.88-4.8-4.2-4.8s-4.2,2.149-4.2,4.8v17h-7.2v2h21.6v-2h-6Zm-6.4,0c0-1.518,1.008-2.8,2.2-2.8s2.2,1.282,2.2,2.8v16h-4.4Z"/><path class="b" d="M391.329,155.154a3.972,3.972,0,1,0-3.972-3.972A3.972,3.972,0,0,0,391.329,155.154Zm0-6.945a2.972,2.972,0,1,1-2.972,2.972A2.976,2.976,0,0,1,391.329,148.209Z"/><rect class="b" x="383.757" y="248.209" width="13.199" height="2"/><path class="b" d="M359.818,176.009h-3.6v-1.2h-4.8v1.2h-3.6v13.2h12Zm-2,11.2h-8v-9.2h8Z"/><path class="b" d="M356.218,200.009h-4.8v1.2h-3.6v13.2h12v-13.2h-3.6Zm1.6,3.2v9.2h-8v-9.2Z"/><path class="b" d="M356.218,227.609v-1.2h-4.8v1.2h-3.6v13.2h12v-13.2Zm1.6,11.2h-8v-9.2h8Z"/><circle class="b" cx="344.743" cy="157.485" r="2.375"/><path class="b" d="M339.418,229.409a4.2,4.2,0,1,0-8.4,0v15.2h-2.4v2h13.2v-2h-2.4Zm-6.4,0a2.2,2.2,0,1,1,4.4,0v14.2h-4.4Z"/><path class="b" d="M331.978,189.209h9.84v-13.2h-3.6v-1.2h-4.8v1.2h-3.6v13.2h2.16Zm-.16-11.2h8v9.2h-8v-9.2Z"/><path class="b" d="M338.218,200.009h-4.8v1.2h-3.6v13.2h12v-13.2h-3.6Zm1.6,3.2v9.2h-7.84v-9.2Z"/></svg>